<svg width="32" height="32" viewBox="0 0 32 32" fill="none" xmlns="http://www.w3.org/2000/svg">
<path d="M29.0366 9.31761C29.236 10.5172 29.2703 12.0293 29.313 14.0325C29.3411 15.3467 29.3411 16.6537 29.313 17.968C29.226 22.055 29.1821 24.0986 27.6743 25.6125C26.1661 27.1264 24.0667 27.1789 19.8687 27.2844C17.2814 27.3495 14.7196 27.3495 12.1323 27.2844C7.93435 27.1789 5.83484 27.1264 4.32668 25.6125C2.81886 24.0986 2.77516 22.055 2.68801 17.968C2.65999 16.6537 2.65999 15.3467 2.68801 14.0325C2.73073 12.0293 2.76407 10.5172 2.9634 9.31761L11.3921 14.093C13.1161 15.0698 14.5175 15.6671 16.0005 15.6672C17.4837 15.6671 18.8857 15.0699 20.6099 14.093L29.0366 9.31761ZM12.1323 4.71605C14.7196 4.65105 17.2814 4.65104 19.8687 4.71605C24.0667 4.82153 26.1661 4.87402 27.6743 6.38793C27.9755 6.69033 28.2172 7.01457 28.4136 7.37132L19.6236 12.3528C17.9502 13.3009 16.934 13.6671 16.0005 13.6672C15.0671 13.6671 14.0507 13.3008 12.3775 12.3528L3.58645 7.37132C3.78287 7.01441 4.02534 6.69045 4.32668 6.38793C5.83486 4.87401 7.93436 4.82152 12.1323 4.71605Z" fill="#F7D252"/>
</svg>
